<svg xmlns="http://www.w3.org/2000/svg" viewBox="0 0 128 128" width="128" height="128">
  <defs>
    <linearGradient id="bg" x1="0%" y1="0%" x2="100%" y2="100%">
      <stop offset="0%" style="stop-color:#667eea;stop-opacity:1" />
      <stop offset="100%" style="stop-color:#764ba2;stop-opacity:1" />
    </linearGradient>
  </defs>
  
  <!-- Background circle -->
  <circle cx="64" cy="64" r="60" fill="url(#bg)" stroke="#ffffff" stroke-width="2"/>
  
  <!-- AI Brain icon -->
  <g transform="translate(32, 32)">
    <!-- Brain outline -->
    <path d="M32 8 C42 8, 52 18, 52 28 C52 38, 42 48, 32 48 C22 48, 12 38, 12 28 C12 18, 22 8, 32 8 Z" 
          fill="none" stroke="#ffffff" stroke-width="3" stroke-linecap="round"/>
    
    <!-- Neural network lines -->
    <line x1="20" y1="20" x2="28" y2="28" stroke="#ffffff" stroke-width="2" opacity="0.8"/>
    <line x1="44" y1="20" x2="36" y2="28" stroke="#ffffff" stroke-width="2" opacity="0.8"/>
    <line x1="20" y1="36" x2="28" y2="28" stroke="#ffffff" stroke-width="2" opacity="0.8"/>
    <line x1="44" y1="36" x2="36" y2="28" stroke="#ffffff" stroke-width="2" opacity="0.8"/>
    <line x1="28" y1="28" x2="36" y2="28" stroke="#ffffff" stroke-width="2"/>
    
    <!-- Neural nodes -->
    <circle cx="20" cy="20" r="2" fill="#ffffff"/>
    <circle cx="44" cy="20" r="2" fill="#ffffff"/>
    <circle cx="20" cy="36" r="2" fill="#ffffff"/>
    <circle cx="44" cy="36" r="2" fill="#ffffff"/>
    <circle cx="28" cy="28" r="3" fill="#ffffff"/>
    <circle cx="36" cy="28" r="3" fill="#ffffff"/>
  </g>
  
  <!-- Card symbols -->
  <g transform="translate(45, 85)" opacity="0.9">
    <rect x="0" y="0" width="12" height="16" rx="2" fill="#ffffff"/>
    <rect x="8" y="4" width="12" height="16" rx="2" fill="#ffffff" opacity="0.8"/>
    <rect x="16" y="8" width="12" height="16" rx="2" fill="#ffffff" opacity="0.6"/>
  </g>
</svg> 